<?xml version="1.0" encoding="UTF-8"?>
<svg version="1.1" xmlns="http://www.w3.org/2000/svg" width="128" height="128">
<path d="M0 0 C4.37676011 1.62445135 8.40142153 3.72589083 12.5 5.9375 C13.15097656 6.28490234 13.80195313 6.63230469 14.47265625 6.99023438 C15.11074219 7.33248047 15.74882813 7.67472656 16.40625 8.02734375 C17.02371094 8.35718262 17.64117187 8.68702148 18.27734375 9.02685547 C20 10 20 10 22.71875 11.87890625 C24.91210382 13.27995829 24.91210382 13.27995829 27.02734375 12.37890625 C27.67832031 11.92386719 28.32929687 11.46882813 29 11 C30.11568359 10.27103516 30.11568359 10.27103516 31.25390625 9.52734375 C32.79595175 8.46539364 34.33761715 7.40289138 35.87890625 6.33984375 C41.1280771 3.02406916 47.01106042 3.38424611 53 4 C62.65033383 6.77748228 70.31454806 14.23283542 75.30078125 22.75 C82.87868228 36.66824775 86.75989431 52.53596118 83.2734375 68.28125 C82.35775114 70.99108605 81.31113185 73.46022472 80 76 C79.67257813 76.64066406 79.34515625 77.28132813 79.0078125 77.94140625 C74.55645389 85.20329421 65.81231541 91.3519358 57.63671875 93.59765625 C45.14064933 95.50446388 33.79658691 94.31124816 23.25 86.9375 C16.3790008 81.20138756 11.96417999 73.69056996 10 65 C9.78981376 62.24301171 9.66758044 59.62642939 9.6875 56.875 C9.68806396 56.13652832 9.68862793 55.39805664 9.68920898 54.63720703 C9.78530404 48.8174893 10.77318994 43.52006572 12.44140625 37.9296875 C13.57371508 31.99100481 11.82762688 27.02982674 9.27734375 21.69921875 C8.73916016 20.55775391 8.20097656 19.41628906 7.64648438 18.24023438 C7.08251953 17.06783203 6.51855469 15.89542969 5.9375 14.6875 C4.81651542 12.33959859 3.70237425 9.98865898 2.58984375 7.63671875 C2.09347412 6.60248779 1.59710449 5.56825684 1.08569336 4.50268555 C0 2 0 2 0 0 Z M65 21 C63.47045101 22.52954899 63.75624496 23.8580517 63.6875 26 C63.70844758 30.90871652 64.75650749 35.34743422 66 40.0625 C69.40996816 53.41361932 69.95444429 66.70042068 62.84375 79 C61.95396566 80.37281012 60.98720045 81.69548512 60 83 C60.33 83.66 60.66 84.32 61 85 C68.89757809 79.54189603 75.03845629 73.34025322 78 64 C79.31983192 49.40511449 77.21770396 34.89698324 68 23 C67.01 22.34 66.02 21.68 65 21 Z M14 51 C14 53.31 14 55.62 14 58 C18.29 59.32 22.58 60.64 27 62 C27 59.69 27 57.38 27 55 C22.60748167 52.97944157 18.84659077 51.59104765 14 51 Z M45 61 C45 63.31 45 65.62 45 68 C46.60256108 68.50512244 48.20711792 69.00391627 49.8125 69.5 C50.70582031 69.7784375 51.59914063 70.056875 52.51953125 70.34375 C55.05573395 71.12788351 55.05573395 71.12788351 58 71 C58 68.69 58 66.38 58 64 C56.39743892 63.49487756 54.79288208 62.99608373 53.1875 62.5 C52.29417969 62.2215625 51.40085937 61.943125 50.48046875 61.65625 C47.94426605 60.87211649 47.94426605 60.87211649 45 61 Z M29 72 C29 74.31 29 76.62 29 79 C32.3 79.99 35.6 80.98 39 82 C39 79.69 39 77.38 39 75 C34.18790099 72.70954986 34.18790099 72.70954986 29 72 Z " fill="rgba(0, 0, 0, 0.85)" transform="translate(17,13)"/>
</svg>
